<?xml version="1.0" encoding="UTF-8"?>
<svg version="1.1" xmlns="http://www.w3.org/2000/svg" width="225" height="225">
<path d="M0 0 C74.25 0 148.5 0 225 0 C225 74.25 225 148.5 225 225 C150.75 225 76.5 225 0 225 C0 150.75 0 76.5 0 0 Z " fill="#6F6F6F" transform="translate(0,0)"/>
<path d="M0 0 C74.25 0 148.5 0 225 0 C225 32.01 225 64.02 225 97 C150.75 97 76.5 97 0 97 C0 64.99 0 32.98 0 0 Z " fill="#808080" transform="translate(0,128)"/>
<path d="M0 0 C66.33 0 132.66 0 201 0 C201 0.99 201 1.98 201 3 C165.36 3.495 165.36 3.495 129 4 C129 4.66 129 5.32 129 6 C160.68 6 192.36 6 225 6 C225 12.27 225 18.54 225 25 C150.75 25 76.5 25 0 25 C0 16.75 0 8.5 0 0 Z M118 7 C118 7.33 118 7.66 118 8 C143.08 8 168.16 8 194 8 C194 7.67 194 7.34 194 7 C185.41982702 6.84556142 176.83957769 6.69738874 168.25916386 6.5570364 C164.2741971 6.49166002 160.28928947 6.42419128 156.30444336 6.35180664 C152.45306469 6.28192566 148.60162807 6.2177161 144.75008965 6.15730476 C143.28659112 6.13337864 141.82312353 6.10746885 140.35969734 6.07946587 C132.82824509 5.93663412 125.47291548 5.92520296 118 7 Z " fill="#505050" transform="translate(0,103)"/>
<path d="M0 0 C74.25 0 148.5 0 225 0 C225 6.6 225 13.2 225 20 C207.18 20 189.36 20 171 20 C171 20.66 171 21.32 171 22 C117.87 22.33 64.74 22.66 10 23 C10 23.66 10 24.32 10 25 C6.7 25 3.4 25 0 25 C0 16.75 0 8.5 0 0 Z " fill="#292929" transform="translate(0,0)"/>
<path d="M0 0 C17.82 0 35.64 0 54 0 C54 7.26 54 14.52 54 22 C-14.31 22.33 -82.62 22.66 -153 23 C-153 22.34 -153 21.68 -153 21 C-103.83 20.67 -54.66 20.34 -4 20 C-4 19.34 -4 18.68 -4 18 C-23.27957098 18.10709727 -42.55910105 18.2198328 -61.83859921 18.33933926 C-70.78976555 18.39469177 -79.74093588 18.44817704 -88.69213867 18.49731445 C-96.49112891 18.54013151 -104.29008956 18.58640314 -112.08903414 18.63687855 C-116.22110448 18.66349953 -120.35316887 18.68835302 -124.48527336 18.70907402 C-128.37004402 18.72860921 -132.25475826 18.75274342 -136.13947868 18.78049088 C-137.56938659 18.7898779 -138.99930689 18.7975472 -140.42923355 18.80341911 C-142.37321137 18.81165225 -144.31715781 18.82651788 -146.26109314 18.84178162 C-147.35157424 18.84823417 -148.44205534 18.85468672 -149.56558132 18.8613348 C-151.94795679 18.72603991 -151.94795679 18.72603991 -153 20 C-154.34267413 20.08631874 -155.68974322 20.10706473 -157.03515625 20.09765625 C-157.84404297 20.09443359 -158.65292969 20.09121094 -159.48632812 20.08789062 C-160.33646484 20.07951172 -161.18660156 20.07113281 -162.0625 20.0625 C-162.91650391 20.05798828 -163.77050781 20.05347656 -164.65039062 20.04882812 C-166.76695663 20.03700373 -168.88348685 20.01906769 -171 20 C-171 15.05 -171 10.1 -171 5 C-167.7 5 -164.4 5 -161 5 C-161 4.34 -161 3.68 -161 3 C-152.99957565 1.89355578 -145.09014799 1.86507753 -137.02514648 1.88647461 C-135.52630109 1.88675712 -134.02745555 1.8865975 -132.52861023 1.8860321 C-128.48380535 1.88574662 -124.43903046 1.89160294 -120.39423251 1.89860606 C-116.15817338 1.90488121 -111.92211347 1.90544668 -107.68605042 1.90663147 C-99.67525175 1.90973255 -91.66446682 1.91792939 -83.65367419 1.92798096 C-74.52909442 1.93918016 -65.40451398 1.94466212 -56.27992904 1.94967639 C-37.51994492 1.96011308 -18.75997357 1.97768874 0 2 C0 1.34 0 0.68 0 0 Z " fill="#272727" transform="translate(171,20)"/>
<path d="M0 0 C74.25 0 148.5 0 225 0 C225 6.6 225 13.2 225 20 C193.32 20 161.64 20 129 20 C129 19.34 129 18.68 129 18 C129.99 17.01 130.98 16.02 132 15 C88.44 14.67 44.88 14.34 0 14 C0 9.38 0 4.76 0 0 Z M142.53515625 20.12109375 C144.0244416 20.14544145 145.51373532 20.16928254 147.0030365 20.19264221 C150.89433426 20.2550212 154.78548114 20.32421473 158.67663574 20.39489746 C162.65870379 20.46600218 166.64087754 20.53056562 170.62304688 20.59570312 C178.4154816 20.72411871 186.20776843 20.85974395 194 21 C194 21.33 194 21.66 194 22 C168.92 22 143.84 22 118 22 C118 21.67 118 21.34 118 21 C126.1901121 19.82205167 134.28660511 19.96325591 142.53515625 20.12109375 Z " fill="#545454" transform="translate(0,89)"/>
<path d="M0 0 C50.49 0 100.98 0 153 0 C153 0.99 153 1.98 153 3 C169.83 3.33 186.66 3.66 204 4 C204 6.97 204 9.94 204 13 C177.6 13 151.2 13 124 13 C124.33 12.01 124.66 11.02 125 10 C121.37 10 117.74 10 114 10 C113.34 11.65 112.68 13.3 112 15 C100.45 15 88.9 15 77 15 C77 14.67 77 14.34 77 14 C66.28956221 13.86861339 55.57911353 13.73815636 44.86865044 13.60884857 C39.89403612 13.54876147 34.91942594 13.48836797 29.94482422 13.42724609 C25.13374831 13.36814517 20.32266284 13.30988584 15.51156998 13.25218201 C13.68660247 13.23015098 11.86163845 13.20782932 10.03667831 13.18519592 C-0.30963115 13.0570897 -10.65271205 12.96640188 -21 13 C-21 9.7 -21 6.4 -21 3 C-6.52111584 2.23217132 7.90041699 1.85972425 22.3984375 1.90234375 C24.12345344 1.90382126 25.84846984 1.90483696 27.57348633 1.90539551 C33.84066457 1.91055471 40.10783309 1.92451474 46.375 1.9375 C67.474375 1.9684375 67.474375 1.9684375 89 2 C59.63 1.67 30.26 1.34 0 1 C0 0.67 0 0.34 0 0 Z " fill="#606060" transform="translate(21,56)"/>
<path d="M0 0 C74.25 0 148.5 0 225 0 C225 5.61 225 11.22 225 17 C187.38 17 149.76 17 111 17 C110.06508817 12.32544083 109.92027988 8.7034873 110 4 C107.69 3.67 105.38 3.34 103 3 C103 2.67 103 2.34 103 2 C75.28 2 47.56 2 19 2 C19 2.33 19 2.66 19 3 C12.73 3 6.46 3 0 3 C0 2.01 0 1.02 0 0 Z M153 18 C153 18.33 153 18.66 153 19 C106.14 19 59.28 19 11 19 C11 18.67 11 18.34 11 18 C23.16525559 17.84327165 35.33058685 17.69521556 47.496068 17.5570364 C53.15034927 17.49256632 58.80457169 17.4255494 64.45874023 17.35180664 C93.9992854 16.96879484 123.47035857 17.06519493 153 18 Z " fill="#515151" transform="translate(0,0)"/>
<path d="M0 0 C66.33 0 132.66 0 201 0 C201 0.99 201 1.98 201 3 C165.36 3.495 165.36 3.495 129 4 C129 4.66 129 5.32 129 6 C160.68 6 192.36 6 225 6 C225 7.65 225 9.3 225 11 C197.69178243 12.40849897 170.35163371 12.11742087 143.01690674 12.06866455 C136.57312349 12.0582914 130.12933613 12.05383745 123.68554688 12.04882812 C111.12368736 12.0382191 98.56184575 12.02123406 86 12 C86 12.33 86 12.66 86 13 C57.62 13 29.24 13 0 13 C0 8.71 0 4.42 0 0 Z M118 7 C118 7.33 118 7.66 118 8 C143.08 8 168.16 8 194 8 C194 7.67 194 7.34 194 7 C185.41982702 6.84556142 176.83957769 6.69738874 168.25916386 6.5570364 C164.2741971 6.49166002 160.28928947 6.42419128 156.30444336 6.35180664 C152.45306469 6.28192566 148.60162807 6.2177161 144.75008965 6.15730476 C143.28659112 6.13337864 141.82312353 6.10746885 140.35969734 6.07946587 C132.82824509 5.93663412 125.47291548 5.92520296 118 7 Z M117 12 C143.07 12 169.14 12 196 12 C196 12.33 196 12.66 196 13 C169.93 13 143.86 13 117 13 C117 12.67 117 12.34 117 12 Z " fill="#4C4C4C" transform="translate(0,103)"/>
<path d="M0 0 C17.82 0 35.64 0 54 0 C54 2.97 54 5.94 54 9 C37.5 9.33 21 9.66 4 10 C4 10.33 4 10.66 4 11 C-47.48 11 -98.96 11 -152 11 C-152 10.67 -152 10.34 -152 10 C-154.97 9.67 -157.94 9.34 -161 9 C-161 9.66 -161 10.32 -161 11 C-164.3 11 -167.6 11 -171 11 C-171 9.02 -171 7.04 -171 5 C-167.7 5 -164.4 5 -161 5 C-161 4.34 -161 3.68 -161 3 C-152.99957565 1.89355578 -145.09014799 1.86507753 -137.02514648 1.88647461 C-135.52630109 1.88675712 -134.02745555 1.8865975 -132.52861023 1.8860321 C-128.48380535 1.88574662 -124.43903046 1.89160294 -120.39423251 1.89860606 C-116.15817338 1.90488121 -111.92211347 1.90544668 -107.68605042 1.90663147 C-99.67525175 1.90973255 -91.66446682 1.91792939 -83.65367419 1.92798096 C-74.52909442 1.93918016 -65.40451398 1.94466212 -56.27992904 1.94967639 C-37.51994492 1.96011308 -18.75997357 1.97768874 0 2 C0 1.34 0 0.68 0 0 Z " fill="#656565" transform="translate(171,20)"/>
<path d="M0 0 C22.44 0 44.88 0 68 0 C68 0.33 68 0.66 68 1 C73.445 1.495 73.445 1.495 79 2 C79 2.33 79 2.66 79 3 C97.81 3.495 97.81 3.495 117 4 C117 6.31 117 8.62 117 11 C77 11 37 11 -3 11 C-3.33 11.66 -3.66 12.32 -4 13 C-38.32 13 -72.64 13 -108 13 C-108 10.03 -108 7.06 -108 4 C-96.15715135 2.85577665 -84.4246394 2.95452239 -72.54296875 3.12109375 C-70.50271699 3.14545188 -68.46245899 3.16929237 -66.42219543 3.19264221 C-61.09781725 3.2549388 -55.77355148 3.32414901 -50.44927979 3.39489746 C-45.00204476 3.46604452 -39.55473189 3.53059894 -34.10742188 3.59570312 C-25.34066965 3.70119688 -16.5739791 3.81071863 -7.80734253 3.9254303 C-4.40378101 3.97752555 -4.40378101 3.97752555 -1 4 C-0.67 2.68 -0.34 1.36 0 0 Z " fill="#666666" transform="translate(108,65)"/>
<path d="M0 0 C1.0904811 0.00092179 2.1809622 0.00184359 3.30448818 0.00279331 C4.55115765 0.00141865 5.79782711 0.00004398 7.08227444 -0.00137234 C8.47653127 0.00216727 9.87078785 0.00580209 11.26504421 0.00952244 C12.72330123 0.0098043 14.18155839 0.00964659 15.63981533 0.00907993 C19.61071618 0.00879193 23.58158708 0.01468906 27.55248094 0.02165389 C31.69783233 0.02788702 35.84318434 0.02849119 39.9885397 0.0296793 C47.84377459 0.03279274 55.69899564 0.04100629 63.55422443 0.05102879 C72.49482531 0.06218954 81.43542684 0.06770028 90.37603295 0.07272422 C108.77255694 0.0831889 127.16906802 0.10078858 145.56558132 0.12304783 C145.89558132 1.11304783 146.22558132 2.10304783 146.56558132 3.12304783 C97.06558132 3.12304783 47.56558132 3.12304783 -3.43441868 3.12304783 C-1.65756314 4.89990337 0.72000615 4.24558155 3.08632427 4.25212914 C4.28425804 4.24775988 4.28425804 4.24775988 5.50639248 4.24330235 C6.34845869 4.24415677 7.1905249 4.24501119 8.05810827 4.24589151 C10.90184761 4.2475489 13.74552898 4.24202073 16.58926296 4.23657322 C18.61894129 4.23629138 20.64861973 4.23644902 22.678298 4.23701572 C28.20699693 4.23730382 33.73567438 4.23140522 39.2643683 4.22444177 C45.03529868 4.21821015 50.80622951 4.21760458 56.57716274 4.21641636 C67.51358492 4.21330247 78.44999716 4.20508832 89.38641495 4.19506687 C101.83360023 4.1839075 114.28078597 4.17839573 126.72797501 4.17337143 C152.34051597 4.16290575 177.95304809 4.14530521 203.56558132 4.12304783 C203.56558132 7.09304783 203.56558132 10.06304783 203.56558132 13.12304783 C179.14558132 13.12304783 154.72558132 13.12304783 129.56558132 13.12304783 C129.56558132 12.46304783 129.56558132 11.80304783 129.56558132 11.12304783 C130.55558132 10.13304783 131.54558132 9.14304783 132.56558132 8.12304783 C81.74558132 7.79304783 30.92558132 7.46304783 -21.43441868 7.12304783 C-21.43441868 5.47304783 -21.43441868 3.82304783 -21.43441868 2.12304783 C-20.14664524 2.06246189 -18.8588718 2.00187595 -17.53207493 1.93945408 C-15.85367709 1.85506536 -14.17529231 1.77041653 -12.49691868 1.68554783 C-11.2217136 1.62657322 -11.2217136 1.62657322 -9.9207468 1.5664072 C-9.11186008 1.52451267 -8.30297337 1.48261814 -7.46957493 1.43945408 C-6.34627781 1.38446751 -6.34627781 1.38446751 -5.20028782 1.32837009 C-2.76547735 1.04526825 -2.66877905 0.13489359 0 0 Z " fill="#898989" transform="translate(21.43441867828369,37.876952171325684)"/>
<path d="M0 0 C51.81 0 103.62 0 157 0 C157 1.65 157 3.3 157 5 C148.09 5 139.18 5 130 5 C130 5.66 130 6.32 130 7 C105.91 7 81.82 7 57 7 C57 6.67 57 6.34 57 6 C53.37 6 49.74 6 46 6 C45.67 6.99 45.34 7.98 45 9 C34.44 9 23.88 9 13 9 C13 8.34 13 7.68 13 7 C-13.73 7 -40.46 7 -68 7 C-68 5.35 -68 3.7 -68 2 C-45.56 1.67 -23.12 1.34 0 1 C0 0.67 0 0.34 0 0 Z M49 1 C49 1.33 49 1.66 49 2 C75.07 2 101.14 2 128 2 C128 1.67 128 1.34 128 1 C101.93 1 75.86 1 49 1 Z " fill="#ADADAD" transform="translate(68,114)"/>
<path d="M0 0 C74.25 0 148.5 0 225 0 C225 2.97 225 5.94 225 9 C193.32 9 161.64 9 129 9 C129 8.34 129 7.68 129 7 C129.99 6.01 130.98 5.02 132 4 C88.44 3.67 44.88 3.34 0 3 C0 2.01 0 1.02 0 0 Z M142.53515625 9.12109375 C144.0244416 9.14544145 145.51373532 9.16928254 147.0030365 9.19264221 C150.89433426 9.2550212 154.78548114 9.32421473 158.67663574 9.39489746 C162.65870379 9.46600218 166.64087754 9.53056562 170.62304688 9.59570312 C178.4154816 9.72411871 186.20776843 9.85974395 194 10 C194 10.33 194 10.66 194 11 C168.92 11 143.84 11 118 11 C118 10.67 118 10.34 118 10 C126.1901121 8.82205167 134.28660511 8.96325591 142.53515625 9.12109375 Z " fill="#838383" transform="translate(0,100)"/>
<path d="M0 0 C66.33 0 132.66 0 201 0 C201 0.99 201 1.98 201 3 C165.36 3.495 165.36 3.495 129 4 C129 4.66 129 5.32 129 6 C122.86924093 9.06537954 114.40881939 8.13629702 107.71484375 8.09765625 C106.77314835 8.0962413 105.83145294 8.09482635 104.86122131 8.09336853 C101.88661368 8.08782122 98.91208445 8.07527887 95.9375 8.0625 C93.90690214 8.05747818 91.87630308 8.05291647 89.84570312 8.04882812 C84.89710572 8.03786912 79.9485661 8.02064152 75 8 C75 7.67 75 7.34 75 7 C60.15 6.67 45.3 6.34 30 6 C30 6.66 30 7.32 30 8 C20.1 8 10.2 8 0 8 C0 5.36 0 2.72 0 0 Z " fill="#6A6A6A" transform="translate(0,103)"/>
<path d="M0 0 C71.66666667 0 143.33333333 0 215 0 C215 1.65 215 3.3 215 5 C206.28155997 5.02312611 197.56313044 5.04091646 188.84466648 5.05181217 C184.79674258 5.05704041 180.74883959 5.06413699 176.70092773 5.07543945 C172.79764029 5.08627043 168.89437301 5.09227728 164.9910717 5.09487724 C163.49866353 5.09673111 162.00625652 5.100351 160.51385689 5.10573006 C158.43051861 5.11294331 156.34726469 5.11399083 154.26391602 5.11352539 C153.07588882 5.115746 151.88786163 5.11796661 150.66383362 5.12025452 C148 5 148 5 147 4 C146.34 4.99 145.68 5.98 145 7 C142.3332119 7.36914349 142.3332119 7.36914349 138.87509155 7.36076355 C136.91467674 7.36694954 136.91467674 7.36694954 134.91465759 7.3732605 C133.45791422 7.36264229 132.00117291 7.35173785 130.54443359 7.34057617 C129.01706458 7.33973035 127.48969435 7.34020416 125.96232605 7.34190369 C121.80751219 7.34276682 117.6529565 7.32508981 113.4982028 7.30418181 C109.1593477 7.28546787 104.82048713 7.28366875 100.4815979 7.28010559 C92.26156122 7.27076955 84.04164378 7.24613475 75.82165968 7.21605712 C66.46509713 7.18256153 57.10852897 7.1660393 47.75192142 7.15097082 C28.50121326 7.1195865 9.2506162 7.0667958 -10 7 C-10 5.35 -10 3.7 -10 2 C-6.7 2 -3.4 2 0 2 C0 1.34 0 0.68 0 0 Z " fill="#0A0A0A" transform="translate(10,29)"/>
<path d="M0 0 C46.2 0 92.4 0 140 0 C140 0.33 140 0.66 140 1 C168.05 1 196.1 1 225 1 C225 2.98 225 4.96 225 7 C196.29 7 167.58 7 138 7 C138 6.67 138 6.34 138 6 C149.88 6 161.76 6 174 6 C174 5.01 174 4.02 174 3 C162.12 3.33 150.24 3.66 138 4 C138 4.33 138 4.66 138 5 C109.41362579 6.05534575 80.84774495 6.12466576 52.24475098 6.06866455 C46.32983775 6.05823097 40.41491987 6.05382511 34.5 6.04882812 C22.99998829 6.03826651 11.49999647 6.02131777 0 6 C0 4.02 0 2.04 0 0 Z " fill="#474747" transform="translate(0,53)"/>
<path d="M0 0 C74.25 0 148.5 0 225 0 C225 1.65 225 3.3 225 5 C216.42 5.33 207.84 5.66 199 6 C199 6.33 199 6.66 199 7 C189.50544218 7.15579236 180.01080139 7.30391191 170.51598358 7.4429636 C166.1043403 7.50779776 161.69276325 7.57500677 157.28125 7.64819336 C137.81351256 7.96946188 118.44731481 8.17918405 99 7 C99.66 5.68 100.32 4.36 101 3 C90.44795045 1.69305997 79.85245134 1.77586493 69.23828125 1.68359375 C67.23617662 1.66298794 65.23407599 1.64199061 63.23197937 1.62062073 C57.99605573 1.56577418 52.7600953 1.51620198 47.52410889 1.46777344 C42.16773252 1.41728288 36.8114087 1.36174154 31.45507812 1.30664062 C20.97009712 1.19951766 10.48507022 1.09797342 0 1 C0 0.67 0 0.34 0 0 Z " fill="#0E0E0E" transform="translate(0,89)"/>
<path d="M0 0 C2.03233332 0.00056584 4.06466704 0.0002442 6.09700012 -0.00088501 C11.55028343 -0.0014528 17.00347661 0.01020735 22.45673919 0.02426291 C28.17951343 0.03686713 33.90229032 0.03794833 39.62507629 0.04031372 C50.43341643 0.04650026 61.24171552 0.06287236 72.05003768 0.0830127 C84.36704593 0.10546027 96.68405626 0.11638729 109.00107992 0.12640357 C134.31169637 0.14724146 159.62227653 0.18236178 184.93286133 0.22705078 C184.93286133 1.21705078 184.93286133 2.20705078 184.93286133 3.22705078 C168.43286133 3.55705078 151.93286133 3.88705078 134.93286133 4.22705078 C134.93286133 4.55705078 134.93286133 4.88705078 134.93286133 5.22705078 C83.45286133 5.22705078 31.97286133 5.22705078 -21.06713867 5.22705078 C-21.06713867 4.89705078 -21.06713867 4.56705078 -21.06713867 4.22705078 C-24.03713867 3.89705078 -27.00713867 3.56705078 -30.06713867 3.22705078 C-30.06713867 3.88705078 -30.06713867 4.54705078 -30.06713867 5.22705078 C-33.36713867 5.22705078 -36.66713867 5.22705078 -40.06713867 5.22705078 C-40.06713867 4.23705078 -40.06713867 3.24705078 -40.06713867 2.22705078 C-26.65824336 0.54086261 -13.50617366 -0.05359336 0 0 Z " fill="#A3A3A3" transform="translate(40.067138671875,25.77294921875)"/>
<path d="M0 0 C0.83953594 0.00085602 1.67907188 0.00171204 2.54404831 0.00259399 C13.05022015 0.01409236 23.5563599 0.03432176 34.0625 0.0625 C34.0625 2.3725 34.0625 4.6825 34.0625 7.0625 C23.27084378 7.09307814 12.47919255 7.11346842 1.6875 7.125 C0.49431782 7.12628403 0.49431782 7.12628403 -0.72296906 7.12759399 C-26.47398913 7.1520834 -52.19854173 6.92336535 -77.9375 6.0625 C-77.9375 4.4125 -77.9375 2.7625 -77.9375 1.0625 C-51.96008614 0.07777295 -25.99220532 -0.02668947 0 0 Z M-77.9375 7.0625 C-64.0775 7.0625 -50.2175 7.0625 -35.9375 7.0625 C-35.9375 7.3925 -35.9375 7.7225 -35.9375 8.0625 C-49.7975 8.0625 -63.6575 8.0625 -77.9375 8.0625 C-77.9375 7.7325 -77.9375 7.4025 -77.9375 7.0625 Z " fill="#474747" transform="translate(190.9375,-0.0625)"/>
<path d="M0 0 C45.87 0 91.74 0 139 0 C139 0.66 139 1.32 139 2 C161.11 2 183.22 2 206 2 C206 2.99 206 3.98 206 5 C138.02 5 70.04 5 0 5 C0 3.35 0 1.7 0 0 Z " fill="#CDCDCD" transform="translate(19,32)"/>
<path d="M0 0 C59.07 0 118.14 0 179 0 C179.33 0.99 179.66 1.98 180 3 C148.10328141 4.12205766 116.21163233 4.12486087 84.29972589 4.07202661 C77.2663891 4.06059571 70.23305101 4.05528799 63.19970715 4.05032361 C48.79979521 4.04003113 34.39989787 4.02258774 20 4 C19.67 4.66 19.34 5.32 19 6 C12.73 6 6.46 6 0 6 C0 4.02 0 2.04 0 0 Z " fill="#434343" transform="translate(0,45)"/>
<path d="M0 0 C11.54456053 -0.02323994 23.08911543 -0.04097426 34.63369465 -0.05181217 C39.99514407 -0.0570156 45.35657741 -0.06406679 50.71801758 -0.07543945 C55.89866988 -0.086359 61.07930678 -0.09229595 66.25996971 -0.09487724 C68.22976104 -0.09671522 70.1995516 -0.10030414 72.16933632 -0.10573006 C81.84381817 -0.13130283 91.37479163 -0.08920981 101 1 C103.10698568 1.12532534 105.21508584 1.23483757 107.32421875 1.31640625 C108.89526367 1.37924805 108.89526367 1.37924805 110.49804688 1.44335938 C111.55056641 1.48267578 112.60308594 1.52199219 113.6875 1.5625 C115.33008789 1.62727539 115.33008789 1.62727539 117.00585938 1.69335938 C119.67048597 1.79808269 122.33518311 1.90025779 125 2 C124.34 3.65 123.68 5.3 123 7 C94.29 7 65.58 7 36 7 C35.505 5.515 35.505 5.515 35 4 C30.71 3.67 26.42 3.34 22 3 C22 3.66 22 4.32 22 5 C14.74 5 7.48 5 0 5 C0 3.35 0 1.7 0 0 Z " fill="#A9A9A9" transform="translate(0,90)"/>
<path d="M0 0 C7.59 0 15.18 0 23 0 C23 2.31 23 4.62 23 7 C-8.68 7 -40.36 7 -73 7 C-73 5 -73 5 -71.92289734 3.39628601 C-69.05552681 1.31418351 -66.74796349 1.64049571 -63.23364258 1.65942383 C-62.20886055 1.65876671 -62.20886055 1.65876671 -61.16337585 1.65809631 C-58.90680288 1.66018518 -56.65097431 1.68351963 -54.39453125 1.70703125 C-52.82940578 1.71262689 -51.26427506 1.71689714 -49.69914246 1.71989441 C-45.58083576 1.73134581 -41.46284675 1.7608153 -37.34466553 1.79400635 C-33.14193011 1.82470099 -28.93914334 1.83839844 -24.73632812 1.85351562 C-16.49073967 1.88568493 -8.24540936 1.9368846 0 2 C0 1.34 0 0.68 0 0 Z M-59.46484375 7.12109375 C-57.9755584 7.14544145 -56.48626468 7.16928254 -54.9969635 7.19264221 C-51.10566574 7.2550212 -47.21451886 7.32421473 -43.32336426 7.39489746 C-39.34129621 7.46600218 -35.35912246 7.53056562 -31.37695312 7.59570312 C-23.5845184 7.72411871 -15.79223157 7.85974395 -8 8 C-8 8.33 -8 8.66 -8 9 C-33.08 9 -58.16 9 -84 9 C-84 8.67 -84 8.34 -84 8 C-75.8098879 6.82205167 -67.71339489 6.96325591 -59.46484375 7.12109375 Z " fill="#8A8A8A" transform="translate(202,102)"/>
<path d="M0 0 C50.16 0 100.32 0 152 0 C155.77272727 8.8030303 155.77272727 8.8030303 156 11 C155.34 12.32 154.68 13.64 154 15 C139.81 15 125.62 15 111 15 C110.21052896 11.0526448 109.90797392 7.95712151 110 4 C107.69 3.67 105.38 3.34 103 3 C103 2.67 103 2.34 103 2 C75.28 2 47.56 2 19 2 C19 2.33 19 2.66 19 3 C12.73 3 6.46 3 0 3 C0 2.01 0 1.02 0 0 Z " fill="#DFDFDF" transform="translate(0,0)"/>
<path d="M0 0 C26.73 0 53.46 0 81 0 C81 0.33 81 0.66 81 1 C119.94 1.33 158.88 1.66 199 2 C199 2.33 199 2.66 199 3 C184.81 3 170.62 3 156 3 C156 3.66 156 4.32 156 5 C104.85 5 53.7 5 1 5 C0.67 3.35 0.34 1.7 0 0 Z " fill="#B6B6B6" transform="translate(26,74)"/>
<path d="M0 0 C1.0904811 0.00092179 2.1809622 0.00184359 3.30448818 0.00279331 C4.55115765 0.00141865 5.79782711 0.00004398 7.08227444 -0.00137234 C8.47653127 0.00216727 9.87078785 0.00580209 11.26504421 0.00952244 C12.72330123 0.0098043 14.18155839 0.00964659 15.63981533 0.00907993 C19.61071618 0.00879193 23.58158708 0.01468906 27.55248094 0.02165389 C31.69783233 0.02788702 35.84318434 0.02849119 39.9885397 0.0296793 C47.84377459 0.03279274 55.69899564 0.04100629 63.55422443 0.05102879 C72.49482531 0.06218954 81.43542684 0.06770028 90.37603295 0.07272422 C108.77255694 0.0831889 127.16906802 0.10078858 145.56558132 0.12304783 C145.89558132 1.11304783 146.22558132 2.10304783 146.56558132 3.12304783 C97.06558132 3.12304783 47.56558132 3.12304783 -3.43441868 3.12304783 C-3.43441868 3.78304783 -3.43441868 4.44304783 -3.43441868 5.12304783 C-5.41441868 5.12304783 -7.39441868 5.12304783 -9.43441868 5.12304783 C-9.43441868 4.79304783 -9.43441868 4.46304783 -9.43441868 4.12304783 C-13.39441868 3.79304783 -17.35441868 3.46304783 -21.43441868 3.12304783 C-21.43441868 2.79304783 -21.43441868 2.46304783 -21.43441868 2.12304783 C-20.14664524 2.06246189 -18.8588718 2.00187595 -17.53207493 1.93945408 C-15.85367709 1.85506536 -14.17529231 1.77041653 -12.49691868 1.68554783 C-11.2217136 1.62657322 -11.2217136 1.62657322 -9.9207468 1.5664072 C-9.11186008 1.52451267 -8.30297337 1.48261814 -7.46957493 1.43945408 C-6.34627781 1.38446751 -6.34627781 1.38446751 -5.20028782 1.32837009 C-2.76547735 1.04526825 -2.66877905 0.13489359 0 0 Z " fill="#9A9A9A" transform="translate(21.43441867828369,37.876952171325684)"/>
<path d="M0 0 C17.16 0 34.32 0 52 0 C52 1.65 52 3.3 52 5 C29.89 5 7.78 5 -15 5 C-15 4.34 -15 3.68 -15 3 C-63.84 3.33 -112.68 3.66 -163 4 C-163 3.34 -163 2.68 -163 2 C-109.21 1.67 -55.42 1.34 0 1 C0 0.67 0 0.34 0 0 Z " fill="#3B3B3B" transform="translate(173,29)"/>
<path d="M0 0 C0 0.99 0 1.98 0 3 C-37.62 3 -75.24 3 -114 3 C-114 2.34 -114 1.68 -114 1 C-75.99043361 0.20935221 -38.01780002 -0.14739209 0 0 Z M-72 4 C-72 4.33 -72 4.66 -72 5 C-118.86 5 -165.72 5 -214 5 C-214 4.67 -214 4.34 -214 4 C-201.83474441 3.84327165 -189.66941315 3.69521556 -177.503932 3.5570364 C-171.84965073 3.49256632 -166.19542831 3.4255494 -160.54125977 3.35180664 C-131.0007146 2.96879484 -101.52964143 3.06519493 -72 4 Z " fill="#818181" transform="translate(225,14)"/>
<path d="M0 0 C44.55 0 89.1 0 135 0 C134.34 1.65 133.68 3.3 133 5 C121.45 5 109.9 5 98 5 C98 4.67 98 4.34 98 4 C87.28956221 3.86861339 76.57911353 3.73815636 65.86865044 3.60884857 C60.89403612 3.54876147 55.91942594 3.48836797 50.94482422 3.42724609 C46.13374831 3.36814517 41.32266284 3.30988584 36.51156998 3.25218201 C34.68660247 3.23015098 32.86163845 3.20782932 31.03667831 3.18519592 C20.69036885 3.0570897 10.34728795 2.96640188 0 3 C0 2.01 0 1.02 0 0 Z " fill="#A3A3A3" transform="translate(0,66)"/>
<path d="M0 0 C2.00806522 -0.36914349 2.00806522 -0.36914349 4.5236969 -0.36076355 C5.95185226 -0.36694954 5.95185226 -0.36694954 7.40885925 -0.3732605 C8.45673111 -0.36247467 9.50460297 -0.35168884 10.58422852 -0.34057617 C11.68506775 -0.34101425 12.78590698 -0.34145233 13.92010498 -0.34190369 C17.57321672 -0.33980709 21.22587429 -0.31643325 24.87890625 -0.29296875 C27.40713754 -0.28737553 29.93537208 -0.28310414 32.46360779 -0.28010559 C38.44773989 -0.26980594 44.431676 -0.24614266 50.41572946 -0.21605712 C57.22347392 -0.18256953 64.03122602 -0.16603865 70.83903229 -0.15097082 C84.26536503 -0.12089416 97.6915602 -0.07142624 111.11777592 -0.00837994 C112.07851182 -0.0041026 113.03925458 0 114 0 C123 0 132 0 141 0 C141 0.33 141 0.66 141 1 C128.625 1.495 128.625 1.495 116 2 C115.67 2.99 115.34 3.98 115 5 C86.95 5.33 58.9 5.66 30 6 C29.67 5.34 29.34 4.68 29 4 C18.77 3.67 8.54 3.34 -2 3 C-1.34 2.01 -0.68 1.02 0 0 Z " fill="#030303" transform="translate(84,119)"/>
<path d="M0 0 C34.98 0 69.96 0 106 0 C105.34 1.65 104.68 3.3 104 5 C69.68 5 35.36 5 0 5 C0 3.35 0 1.7 0 0 Z " fill="#181818" transform="translate(0,73)"/>
<path d="M0 0 C0.66 0 1.32 0 2 0 C2 0.66 2 1.32 2 2 C52.82 2 103.64 2 156 2 C156 2.33 156 2.66 156 3 C128.69178243 4.40849897 101.35163371 4.11742087 74.01690674 4.06866455 C67.57312349 4.0582914 61.12933613 4.05383745 54.68554688 4.04882812 C42.12368736 4.0382191 29.56184575 4.02123406 17 4 C17 4.33 17 4.66 17 5 C-11.38 5 -39.76 5 -69 5 C-69 4.67 -69 4.34 -69 4 C-50.85 4 -32.7 4 -14 4 C-14 3.34 -14 2.68 -14 2 C-9.38 2 -4.76 2 0 2 C0 1.34 0 0.68 0 0 Z M48 4 C74.07 4 100.14 4 127 4 C127 4.33 127 4.66 127 5 C100.93 5 74.86 5 48 5 C48 4.67 48 4.34 48 4 Z " fill="#000000" transform="translate(69,111)"/>
<path d="M0 0 C44.88 0 89.76 0 136 0 C136 0.33 136 0.66 136 1 C126.76 1 117.52 1 108 1 C108 1.66 108 2.32 108 3 C72.36 3 36.72 3 0 3 C0 2.01 0 1.02 0 0 Z " fill="#999999" transform="translate(0,62)"/>
<path d="M0 0 C66.33 0 132.66 0 201 0 C201 0.33 201 0.66 201 1 C147.54 1.495 147.54 1.495 93 2 C93 2.33 93 2.66 93 3 C62.31 3 31.62 3 0 3 C0 2.01 0 1.02 0 0 Z " fill="#161616" transform="translate(0,103)"/>
<path d="M0 0 C50.49 0 100.98 0 153 0 C153.33 1.65 153.66 3.3 154 5 C132.55 5 111.1 5 89 5 C89 4.01 89 3.02 89 2 C59.63 1.67 30.26 1.34 0 1 C0 0.67 0 0.34 0 0 Z " fill="#C6C6C6" transform="translate(21,56)"/>
<path d="M0 0 C9.24 0 18.48 0 28 0 C28 1.65 28 3.3 28 5 C19.09 5 10.18 5 1 5 C1 5.66 1 6.32 1 7 C-23.09 7 -47.18 7 -72 7 C-72 6.67 -72 6.34 -72 6 C-48.24 6 -24.48 6 0 6 C0 5.34 0 4.68 0 4 C-26.73 4 -53.46 4 -81 4 C-81 3.67 -81 3.34 -81 3 C-54.6 3 -28.2 3 -1 3 C-0.67 2.01 -0.34 1.02 0 0 Z " fill="#747474" transform="translate(197,114)"/>
<path d="M0 0 C15.51 0 31.02 0 47 0 C47 1.98 47 3.96 47 6 C20.6 6 -5.8 6 -33 6 C-33 5.67 -33 5.34 -33 5 C-22.11 4.67 -11.22 4.34 0 4 C0 3.01 0 2.02 0 1 C0 0.67 0 0.34 0 0 Z " fill="#7A7A7A" transform="translate(178,63)"/>
<path d="M0 0 C22.44 0 44.88 0 68 0 C68 0.33 68 0.66 68 1 C71.63 1.33 75.26 1.66 79 2 C79 2.33 79 2.66 79 3 C97.81 3.495 97.81 3.495 117 4 C117 4.33 117 4.66 117 5 C78.06 5 39.12 5 -1 5 C-0.67 3.35 -0.34 1.7 0 0 Z " fill="#020202" transform="translate(108,65)"/>
<path d="M0 0 C32.67 0 65.34 0 99 0 C99 0.99 99 1.98 99 3 C68.97 3 38.94 3 8 3 C8 2.34 8 1.68 8 1 C5.36 1 2.72 1 0 1 C0 0.67 0 0.34 0 0 Z " fill="#010101" transform="translate(11,1)"/>
<path d="M0 0 C23.1 0 46.2 0 70 0 C70 0.99 70 1.98 70 3 C59.3960917 3.20338583 48.79195541 3.39012008 38.1875 3.5625 C37.01341772 3.5815999 37.01341772 3.5815999 35.81561661 3.60108566 C9.85325962 4.01807255 -16.04764534 3.97962753 -42 3 C-42 2.67 -42 2.34 -42 2 C-28.14 2 -14.28 2 0 2 C0 1.34 0 0.68 0 0 Z " fill="#3A3A3A" transform="translate(155,7)"/>
<path d="M0 0 C0.83953594 0.00085602 1.67907188 0.00171204 2.54404831 0.00259399 C13.05022015 0.01409236 23.5563599 0.03432176 34.0625 0.0625 C34.0625 1.0525 34.0625 2.0425 34.0625 3.0625 C22.89584335 3.09299299 11.72919153 3.1134376 0.5625 3.125 C-0.25842133 3.12585602 -1.07934265 3.12671204 -1.92514038 3.12759399 C-27.27562734 3.15096367 -52.60065883 2.98206103 -77.9375 2.0625 C-77.9375 1.7325 -77.9375 1.4025 -77.9375 1.0625 C-51.96008614 0.07777295 -25.99220532 -0.02668947 0 0 Z " fill="#707070" transform="translate(190.9375,-0.0625)"/>
<path d="M0 0 C29.04 0 58.08 0 88 0 C88 0.99 88 1.98 88 3 C58.63 3 29.26 3 -1 3 C-0.67 2.01 -0.34 1.02 0 0 Z " fill="#9A9A9A" transform="translate(137,90)"/>
<path d="M0 0 C27.72 0 55.44 0 84 0 C84 0.66 84 1.32 84 2 C80.90483565 3.54758217 77.64143926 3.1295989 74.24560547 3.11352539 C73.44552063 3.11367142 72.64543579 3.11381744 71.82110596 3.1139679 C69.16977247 3.1132698 66.51850875 3.10548221 63.8671875 3.09765625 C62.03158608 3.0957917 60.19598417 3.09436797 58.36038208 3.09336853 C53.52376945 3.08954623 48.68718673 3.07971839 43.85058594 3.06866455 C38.91732183 3.05844426 33.98405289 3.05386958 29.05078125 3.04882812 C19.36717434 3.03809588 9.68358965 3.02102289 0 3 C0 2.01 0 1.02 0 0 Z " fill="#2B2B2B" transform="translate(0,117)"/>
<path d="M0 0 C26.73 0 53.46 0 81 0 C80.67 0.99 80.34 1.98 80 3 C53.6 3 27.2 3 0 3 C0 2.01 0 1.02 0 0 Z " fill="#2F2F2F" transform="translate(0,121)"/>
<path d="M0 0 C1.5631897 0.00785522 1.5631897 0.00785522 3.15795898 0.01586914 C4.28266602 0.0190918 5.40737305 0.02231445 6.56616211 0.02563477 C7.75016602 0.03401367 8.93416992 0.04239258 10.15405273 0.05102539 C11.34192383 0.05553711 12.52979492 0.06004883 13.75366211 0.06469727 C16.69967499 0.07652864 19.64558954 0.09301252 22.59155273 0.11352539 C22.59155273 1.10352539 22.59155273 2.09352539 22.59155273 3.11352539 C14.67155273 3.44352539 6.75155273 3.77352539 -1.40844727 4.11352539 C-1.40844727 4.44352539 -1.40844727 4.77352539 -1.40844727 5.11352539 C-27.14844727 5.11352539 -52.88844727 5.11352539 -79.40844727 5.11352539 C-79.07844727 4.12352539 -78.74844727 3.13352539 -78.40844727 2.11352539 C-77.00236961 2.09806419 -77.00236961 2.09806419 -75.56788635 2.08229065 C-66.75316084 1.98472367 -57.93850856 1.88200588 -49.12390232 1.77418613 C-44.5917414 1.71891617 -40.05957408 1.6654898 -35.52734375 1.61621094 C-31.15716179 1.56862728 -26.78706078 1.51628691 -22.41697502 1.46058464 C-20.74596091 1.44013381 -19.07492458 1.42142533 -17.40387154 1.40445137 C-15.07141166 1.38046746 -12.7391062 1.35040519 -10.40673828 1.31884766 C-9.70902817 1.31309219 -9.01131805 1.30733673 -8.29246521 1.30140686 C-5.06912096 1.25151609 -2.94141192 0.13864739 0 0 Z " fill="#CDCDCD" transform="translate(202.408447265625,119.886474609375)"/>
<path d="M0 0 C25.41 0 50.82 0 77 0 C77 0.33 77 0.66 77 1 C67.1 1.33 57.2 1.66 47 2 C47 2.33 47 2.66 47 3 C41.39 3 35.78 3 30 3 C30 3.66 30 4.32 30 5 C20.1 5 10.2 5 0 5 C0 3.35 0 1.7 0 0 Z " fill="#939393" transform="translate(0,106)"/>
<path d="M0 0 C7.59 0 15.18 0 23 0 C23 0.99 23 1.98 23 3 C12.605 3.495 12.605 3.495 2 4 C2 4.33 2 4.66 2 5 C-22.09 5 -46.18 5 -71 5 C-70.67 4.01 -70.34 3.02 -70 2 C-46.9 2 -23.8 2 0 2 C0 1.34 0 0.68 0 0 Z " fill="#C9C9C9" transform="translate(202,102)"/>
<path d="M0 0 C6.93 0 13.86 0 21 0 C20.34 0.33 19.68 0.66 19 1 C19 1.66 19 2.32 19 3 C14.38 3 9.76 3 5 3 C5 3.66 5 4.32 5 5 C-13.15 5 -31.3 5 -50 5 C-50 4.34 -50 3.68 -50 3 C-33.5 3 -17 3 0 3 C0 2.01 0 1.02 0 0 Z " fill="#585858" transform="translate(50,110)"/>
<path d="M0 0 C14.19 0 28.38 0 43 0 C43 0.66 43 1.32 43 2 C35.41 1.67 27.82 1.34 20 1 C20 1.99 20 2.98 20 4 C3.5 4 -13 4 -30 4 C-30 3.34 -30 2.68 -30 2 C-20.1 2 -10.2 2 0 2 C0 1.34 0 0.68 0 0 Z " fill="#3A3A3A" transform="translate(30,109)"/>
<path d="M0 0 C17.82 0 35.64 0 54 0 C54 0.99 54 1.98 54 3 C36.18 3 18.36 3 0 3 C0 2.01 0 1.02 0 0 Z M-2 3 C0 4 0 4 0 4 Z " fill="#A5A5A5" transform="translate(171,20)"/>
<path d="M0 0 C33.99 0 67.98 0 103 0 C103 0.33 103 0.66 103 1 C61.42 1.495 61.42 1.495 19 2 C19 2.33 19 2.66 19 3 C12.73 3 6.46 3 0 3 C0 2.01 0 1.02 0 0 Z " fill="#A8A8A8" transform="translate(0,0)"/>
<path d="M0 0 C-0.66 0.33 -1.32 0.66 -2 1 C-2 1.66 -2 2.32 -2 3 C-5.11954128 4.55977064 -8.42959384 4.12104126 -11.8515625 4.09765625 C-12.62559418 4.0962413 -13.39962585 4.09482635 -14.19711304 4.09336853 C-16.67311442 4.08776403 -19.14902588 4.07521083 -21.625 4.0625 C-23.30208203 4.05748558 -24.97916547 4.05292257 -26.65625 4.04882812 C-30.77086806 4.03779315 -34.88541878 4.02052554 -39 4 C-38.67 3.01 -38.34 2.02 -38 1 C-33.91682366 0.82933812 -29.83343988 0.6642253 -25.75 0.5 C-24.61046875 0.45230469 -23.4709375 0.40460938 -22.296875 0.35546875 C-14.85986027 0.05967839 -7.44267274 -0.06108897 0 0 Z " fill="#080808" transform="translate(131,106)"/>
<path d="M0 0 C0.33 0.99 0.66 1.98 1 3 C-2.3 3 -5.6 3 -9 3 C-9 3.66 -9 4.32 -9 5 C-13.95 5 -18.9 5 -24 5 C-24 3.68 -24 2.36 -24 1 C-15.98603754 0.3533402 -8.04212755 -0.16677223 0 0 Z " fill="#686868" transform="translate(24,68)"/>
<path d="M0 0 C6.93 0 13.86 0 21 0 C20.01 0.495 20.01 0.495 19 1 C19 1.66 19 2.32 19 3 C8.605 3.495 8.605 3.495 -2 4 C-1.34 3.67 -0.68 3.34 0 3 C0 2.01 0 1.02 0 0 Z " fill="#7B7B7B" transform="translate(50,110)"/>
<path d="M0 0 C6.93 0 13.86 0 21 0 C20.67 0.99 20.34 1.98 20 3 C13.4 3 6.8 3 0 3 C0 2.01 0 1.02 0 0 Z " fill="#6D6D6D" transform="translate(0,54)"/>
<path d="M0 0 C9.24 0 18.48 0 28 0 C28 0.66 28 1.32 28 2 C26.78884521 2.03758423 26.78884521 2.03758423 25.55322266 2.07592773 C21.91031083 2.19165487 18.26767274 2.31448635 14.625 2.4375 C12.71847656 2.49647461 12.71847656 2.49647461 10.7734375 2.55664062 C9.56171875 2.59853516 8.35 2.64042969 7.1015625 2.68359375 C5.42054443 2.73858032 5.42054443 2.73858032 3.70556641 2.79467773 C1.03287229 2.82596013 1.03287229 2.82596013 -1 4 C-0.67 2.68 -0.34 1.36 0 0 Z " fill="#525252" transform="translate(197,114)"/>
<path d="M0 0 C6.6 0 13.2 0 20 0 C19.67 0.99 19.34 1.98 19 3 C12.73 3 6.46 3 0 3 C0 2.01 0 1.02 0 0 Z " fill="#6A6A6A" transform="translate(0,46)"/>
<path d="M0 0 C6.27 0 12.54 0 19 0 C18.67 0.99 18.34 1.98 18 3 C12.06 3 6.12 3 0 3 C0 2.01 0 1.02 0 0 Z " fill="#676767" transform="translate(0,36)"/>
<path d="M0 0 C6.27 0 12.54 0 19 0 C19 0.99 19 1.98 19 3 C12.73 3 6.46 3 0 3 C0 2.01 0 1.02 0 0 Z " fill="#6F6F6F" transform="translate(0,0)"/>
</svg>
